<?xml version="1.0" encoding="UTF-8" standalone="no"?>
<svg width="132px" height="107px" viewBox="0 0 132 107" version="1.1" xmlns="http://www.w3.org/2000/svg" xmlns:xlink="http://www.w3.org/1999/xlink" xmlns:sketch="http://www.bohemiancoding.com/sketch/ns">
    <!-- Generator: Sketch 3.3.3 (12072) - http://www.bohemiancoding.com/sketch -->
    <title>welcome-hands-icon</title>
    <desc>Created with Sketch.</desc>
    <defs></defs>
    <g id="Page-1" stroke="none" stroke-width="1" fill="none" fill-rule="evenodd" sketch:type="MSPage">
        <g id="welcome-hands-icon" sketch:type="MSArtboardGroup">
            <g id="Imported-Layers" sketch:type="MSLayerGroup" transform="translate(0.000000, 24.000000)">
                <path d="M58.121,68.388 L57.012,67.435 L57.565,66.939 L58.695,66.227 L58.387,67.456 C58.377,67.544 58.366,67.608 58.346,67.671 L58.121,68.388" id="Fill-1" fill="#CCCCCC" sketch:type="MSShapeGroup"></path>
                <path d="M61.652,72.951 C61.652,72.951 61.652,72.951 61.651,72.951 C60.523,72.951 59.447,72.527 58.623,71.758 C57.676,70.873 57.184,69.613 57.245,68.32 C55.212,69.361 52.696,69.004 51.065,67.481 C49.964,66.452 49.357,65.047 49.344,63.571 C48.513,64.058 47.565,64.317 46.588,64.317 C45.211,64.317 43.899,63.799 42.893,62.857 C41.7,61.742 41.092,60.165 41.19,58.563 C39.801,59.118 38.221,58.741 36.554,57.438 C35.066,56.282 34.027,54.586 33.845,53.015 C33.738,52.1 33.936,51.301 34.416,50.704 C34.937,50.054 35.566,49.581 36.288,49.298 C37.821,48.7 39.655,49.125 41.384,50.471 C42.65,51.458 43.481,52.686 43.751,53.917 L46.46,50.932 C47.488,49.828 48.938,49.198 50.444,49.198 C51.831,49.198 53.154,49.72 54.169,50.668 C55.444,51.859 56.049,53.546 55.856,55.243 C57.727,54.588 59.9,55.031 61.359,56.393 C62.834,57.773 63.397,59.803 62.908,61.705 C64.339,61.358 65.886,61.764 66.964,62.773 C67.839,63.593 68.339,64.701 68.375,65.894 C68.411,67.077 67.983,68.204 67.171,69.065 L64.918,71.54 C64.486,72.001 63.963,72.361 63.357,72.615 C62.811,72.839 62.238,72.951 61.652,72.951 L61.652,72.951 Z M58.695,66.227 L58.387,67.456 C58.377,67.544 58.366,67.608 58.346,67.671 C58.035,68.886 58.4,70.182 59.306,71.027 C60.274,71.933 61.741,72.196 62.975,71.691 C63.445,71.494 63.852,71.215 64.183,70.862 L66.437,68.386 C67.072,67.712 67.403,66.84 67.376,65.925 C67.348,64.999 66.959,64.139 66.28,63.502 C65.227,62.518 63.572,62.312 62.3,62.999 L60.925,63.74 L61.613,62.338 C62.486,60.562 62.109,58.466 60.677,57.123 C59.279,55.818 57.07,55.583 55.417,56.54 L54.315,57.179 L54.687,55.961 C55.193,54.312 54.733,52.563 53.486,51.398 C52.658,50.624 51.577,50.198 50.444,50.198 C49.197,50.198 48.044,50.699 47.196,51.608 L42.672,56.595 L42.694,56.379 L42.333,57.736 C41.908,59.33 42.384,61.013 43.576,62.127 C45.215,63.66 47.949,63.659 49.607,62.142 L50.74,61.103 L50.436,62.609 C50.124,64.144 50.615,65.692 51.747,66.75 C53.272,68.175 55.779,68.284 57.448,67.019 L57.565,66.939 L58.695,66.227 L58.695,66.227 Z M37.736,50.028 C37.359,50.028 36.994,50.096 36.652,50.229 C36.089,50.45 35.612,50.811 35.196,51.33 C34.806,51.815 34.785,52.451 34.838,52.898 C34.988,54.193 35.903,55.666 37.168,56.65 C38.869,57.979 40.297,58.177 41.544,57.212 L42.701,56.315 L42.833,55.072 C42.968,53.798 42.196,52.372 40.769,51.26 C39.735,50.454 38.688,50.028 37.736,50.028 L37.736,50.028 Z" id="Fill-2" fill="#CCCCCC" sketch:type="MSShapeGroup"></path>
                <path d="M68.508,75.731 C67.12,75.731 65.797,75.208 64.783,74.258 C64.783,74.258 64.062,73.614 62.833,72.529 L62.235,72.002 L62.971,71.693 C63.445,71.494 63.852,71.215 64.183,70.862 L66.437,68.386 C67.072,67.712 67.403,66.84 67.376,65.925 C67.348,64.999 66.959,64.139 66.28,63.502 C65.227,62.518 63.572,62.312 62.3,62.999 L60.925,63.74 L61.613,62.338 C62.486,60.562 62.109,58.466 60.677,57.123 C59.279,55.818 57.07,55.583 55.417,56.54 L54.315,57.179 L54.687,55.961 C55.193,54.312 54.733,52.563 53.486,51.398 C52.658,50.624 51.577,50.198 50.444,50.198 C49.216,50.198 48.031,50.712 47.196,51.608 L42.672,56.595 L42.833,55.072 C42.968,53.798 42.196,52.372 40.769,51.26 C39.326,50.134 37.856,49.757 36.652,50.229 L36.389,50.333 L36.165,50.159 C31.372,46.449 27.798,43.975 25.539,42.804 L25.103,42.577 L37.348,17.827 L37.63,17.804 C42.273,17.432 46.18,16.864 49.627,16.363 C53.69,15.773 57.197,15.264 60.606,15.264 C61.85,15.264 63.014,15.33 64.164,15.466 C64.32,15.485 64.451,15.536 64.557,15.578 L64.662,15.617 L65.756,15.957 L64.763,16.528 C61.751,18.258 57.871,21.249 55.644,23.551 L55.644,32.7 C55.639,34.432 55.961,35.6 56.63,36.271 C57.108,36.751 57.775,36.985 58.669,36.985 C59.907,36.985 61.107,36.473 61.961,35.58 C62.759,34.746 63.17,33.673 63.12,32.559 C62.935,28.385 62.984,27.304 63.71,27.07 C64.154,26.931 64.732,26.892 65.4,26.846 C66.039,26.802 66.762,26.752 67.398,26.602 C68.218,26.407 68.979,26.109 69.536,25.892 L69.829,25.777 L70.149,25.957 L74.526,30.048 C82.479,39.337 93.506,49.881 95.265,49.881 L95.594,49.795 L95.784,50.07 C97.339,52.183 97.168,55.106 95.377,57.023 C94.444,58.018 93.204,58.609 91.848,58.716 C92.866,60.724 92.547,63.194 90.961,64.888 C89.916,66.004 88.502,66.618 86.979,66.618 C85.911,66.618 84.881,66.309 83.998,65.732 C84.218,67.318 83.72,69.175 82.57,70.404 C81.54,71.504 80.086,72.135 78.582,72.135 C77.194,72.135 75.872,71.612 74.857,70.664 L73.946,69.81 C74.077,71.323 73.57,72.85 72.493,73.998 C71.466,75.1 70.013,75.731 68.508,75.731 L68.508,75.731 Z M64.041,72.262 C64.944,73.06 65.458,73.519 65.458,73.519 C66.295,74.304 67.375,74.731 68.508,74.731 C69.755,74.731 70.911,74.228 71.764,73.315 C72.984,72.014 73.307,70.117 72.587,68.483 L71.602,66.246 L75.541,69.934 C76.369,70.708 77.449,71.135 78.582,71.135 C79.829,71.135 80.986,70.633 81.84,69.721 C83.231,68.233 83.479,65.545 82.342,64.293 L83.054,63.592 L83.932,64.413 C84.764,65.19 85.846,65.618 86.979,65.618 C88.223,65.618 89.377,65.116 90.231,64.204 C91.704,62.631 91.838,60.237 90.549,58.513 L89.879,57.616 L90.993,57.715 C92.366,57.831 93.712,57.336 94.648,56.34 C96.052,54.837 96.235,52.574 95.122,50.87 C92.303,50.456 80.546,38.617 73.805,30.739 L69.696,26.903 C69.089,27.138 68.392,27.393 67.628,27.576 C66.912,27.744 66.145,27.797 65.469,27.843 C64.957,27.878 64.471,27.912 64.138,27.99 C63.943,28.569 64.048,30.927 64.118,32.514 C64.182,33.903 63.672,35.238 62.685,36.272 C61.643,37.361 60.18,37.985 58.669,37.985 C57.512,37.984 56.588,37.645 55.922,36.977 C55.056,36.107 54.638,34.708 54.644,32.699 L54.644,23.15 L54.781,23.005 C56.77,20.911 60.168,18.213 63.1,16.364 C62.293,16.297 61.47,16.264 60.606,16.264 C57.269,16.264 53.794,16.769 49.771,17.353 C46.379,17.846 42.543,18.403 37.992,18.778 L26.433,42.147 C28.717,43.401 32.12,45.772 36.562,49.202 C38.04,48.751 39.758,49.204 41.384,50.471 C42.65,51.458 43.481,52.686 43.751,53.917 L46.46,50.932 C47.488,49.828 48.938,49.198 50.444,49.198 C51.831,49.198 53.154,49.72 54.169,50.668 C55.444,51.859 56.049,53.546 55.856,55.243 C57.727,54.588 59.9,55.031 61.359,56.393 C62.834,57.773 63.397,59.803 62.908,61.705 C64.339,61.358 65.886,61.764 66.964,62.773 C67.839,63.593 68.339,64.701 68.375,65.894 C68.411,67.077 67.983,68.204 67.171,69.065 L64.918,71.54 C64.658,71.817 64.365,72.059 64.041,72.262 L64.041,72.262 Z" id="Fill-3" fill="#CCCCCC" sketch:type="MSShapeGroup"></path>
                <path d="M9.899,47.795 L2.399,43.399 L22.359,3.638 L29.934,7.271 L9.899,47.795 L9.899,47.795 Z M3.714,43.011 L9.479,46.389 L28.59,7.734 L22.812,4.964 L3.714,43.011 L3.714,43.011 Z" id="Fill-5" fill="#CCCCCC" sketch:type="MSShapeGroup"></path>
                <path d="M95.266,50.881 C92.725,50.881 80.666,38.757 73.805,30.739 L69.696,26.903 C69.089,27.138 68.392,27.393 67.628,27.576 C66.912,27.744 66.145,27.797 65.469,27.843 C64.957,27.878 64.471,27.912 64.138,27.99 C63.943,28.569 64.048,30.927 64.119,32.514 C64.182,33.903 63.672,35.238 62.685,36.272 C61.643,37.361 60.18,37.985 58.669,37.985 C57.512,37.984 56.588,37.645 55.922,36.977 C55.056,36.107 54.638,34.708 54.644,32.699 L54.644,23.15 L54.781,23.005 C57.041,20.626 61.118,17.468 64.265,15.661 C66.347,14.465 67.907,13.904 68.919,13.978 C71.365,14.17 74.133,14.541 76.809,14.899 C80.961,15.455 84.879,15.981 87.69,15.894 C90.017,15.827 92.137,16.116 94.06,16.766 L94.256,16.832 L104.949,38.453 L104.941,38.586 C104.74,41.813 104.077,44.429 103.25,45.25 L103.027,45.473 C101.648,46.852 98.42,50.086 95.51,50.851 C95.43,50.871 95.351,50.881 95.266,50.881 L95.266,50.881 Z M69.83,25.777 L70.149,25.957 L74.526,30.048 C82.479,39.337 93.506,49.881 95.266,49.881 L95.266,50.381 L95.269,49.881 C97.903,49.188 100.998,46.089 102.32,44.766 L102.545,44.541 C102.962,44.127 103.701,42.166 103.935,38.656 L93.544,17.649 C91.784,17.082 89.839,16.828 87.721,16.894 C84.836,16.982 80.873,16.452 76.676,15.89 C74.013,15.534 71.26,15.165 68.842,14.976 L68.726,14.971 C67.919,14.971 66.512,15.524 64.763,16.528 C61.751,18.258 57.871,21.249 55.644,23.551 L55.644,32.7 C55.639,34.432 55.961,35.6 56.63,36.271 C57.108,36.751 57.775,36.985 58.669,36.985 C59.907,36.985 61.107,36.473 61.961,35.58 C62.759,34.746 63.17,33.673 63.12,32.559 C62.935,28.385 62.984,27.304 63.71,27.07 C64.154,26.931 64.732,26.892 65.4,26.846 C66.038,26.802 66.762,26.752 67.398,26.602 C68.218,26.407 68.981,26.109 69.536,25.892 L69.83,25.777 L69.83,25.777 Z" id="Fill-6" fill="#CCCCCC" sketch:type="MSShapeGroup"></path>
                <path d="M121.606,46.586 L101.562,6.063 L109.139,2.429 L129.099,42.19 L121.606,46.586 L121.606,46.586 Z M102.908,6.527 L122.025,45.18 L127.784,41.802 L108.685,3.755 L102.908,6.527 L102.908,6.527 Z" id="Fill-8" fill="#CCCCCC" sketch:type="MSShapeGroup"></path>
                <path d="M83.065,63.604 C77.953,58.284 72.841,52.965 67.729,47.646 C67.281,47.18 66.575,47.888 67.021,48.352 C72.134,53.672 77.246,58.991 82.358,64.311 C82.806,64.776 83.512,64.068 83.065,63.604" id="Fill-9" fill="#CCCCCC" sketch:type="MSShapeGroup"></path>
                <path d="M91.543,58.039 C85.854,52.325 80.167,46.61 74.479,40.897 C74.023,40.44 73.316,41.147 73.771,41.603 C79.46,47.317 85.147,53.032 90.836,58.746 C91.291,59.203 91.998,58.496 91.543,58.039" id="Fill-10" fill="#CCCCCC" sketch:type="MSShapeGroup"></path>
                <path d="M68.508,77.231 C66.736,77.231 65.05,76.563 63.757,75.352 L62.634,74.356 C62.29,74.42 61.965,74.451 61.652,74.451 C60.141,74.451 58.701,73.884 57.6,72.854 C56.856,72.16 56.31,71.282 56.01,70.313 C53.876,70.712 51.632,70.065 50.041,68.576 C49.175,67.768 48.532,66.75 48.173,65.636 C45.977,66.152 43.547,65.524 41.868,63.953 C40.817,62.971 40.111,61.704 39.824,60.313 C38.455,60.295 37.044,59.727 35.63,58.621 C33.839,57.227 32.583,55.146 32.354,53.188 C32.202,51.881 32.502,50.71 33.22,49.799 C30.544,47.779 28.331,46.224 26.617,45.155 L23.072,52.318 L12.424,46.074 L10.531,49.902 L0.428,43.982 L21.68,1.648 L31.951,6.574 L31.142,8.211 L42.257,13.543 L41.054,15.975 C44.16,15.642 46.926,15.24 49.412,14.879 C53.536,14.28 57.091,13.764 60.606,13.764 C61.872,13.764 63.06,13.83 64.235,13.964 C66.304,12.854 67.847,12.391 69.035,12.483 C71.536,12.679 74.317,13.052 77.007,13.412 C80.922,13.936 84.944,14.473 87.644,14.394 C88.539,14.364 89.414,14.391 90.299,14.477 L89.239,12.335 L100.356,7.005 L99.546,5.367 L109.818,0.439 L131.07,42.773 L120.976,48.695 L119.079,44.861 L108.425,51.108 L105.278,44.75 C104.999,45.429 104.677,45.947 104.308,46.313 L104.089,46.532 C102.916,47.707 100.599,50.028 98.066,51.405 C98.731,53.731 98.148,56.254 96.473,58.047 C95.721,58.849 94.812,59.448 93.802,59.815 C94.24,61.991 93.611,64.252 92.055,65.913 C90.381,67.704 87.76,68.484 85.416,67.942 C85.155,69.261 84.547,70.486 83.666,71.428 C82.352,72.831 80.499,73.635 78.582,73.635 C77.323,73.635 76.106,73.298 75.044,72.668 C74.727,73.536 74.235,74.334 73.588,75.024 C72.279,76.426 70.427,77.231 68.508,77.231 L68.508,77.231 Z M63.176,72.164 L65.107,73.876 C66.046,74.756 67.247,75.231 68.508,75.231 C69.874,75.231 71.193,74.658 72.127,73.657 C72.863,72.873 73.314,71.898 73.435,70.835 L73.658,68.86 L75.199,70.298 C76.12,71.16 77.321,71.635 78.582,71.635 C79.948,71.635 81.269,71.062 82.206,70.062 C83.028,69.182 83.535,67.882 83.559,66.586 L83.587,65.075 L84.966,65.691 C86.835,66.526 89.18,66.059 90.595,64.546 C91.882,63.173 92.278,61.227 91.631,59.468 L91.225,58.364 L92.379,58.141 C93.39,57.944 94.301,57.44 95.013,56.68 C96.359,55.238 96.712,53.13 95.91,51.31 L95.509,50.399 L96.417,49.993 C98.926,48.872 101.553,46.242 102.674,45.118 L102.895,44.898 C103.099,44.695 103.613,43.991 104.04,41.787 L104.602,38.875 L109.265,48.298 L119.921,42.051 L121.815,45.883 L128.441,41.996 L108.912,3.092 L102.235,6.295 L103.045,7.933 L91.931,13.263 L93.828,17.099 L91.85,16.718 C90.479,16.454 89.111,16.351 87.706,16.394 C84.832,16.484 80.738,15.929 76.752,15.396 C74.079,15.038 71.325,14.668 68.88,14.477 C68.044,14.41 66.693,14.887 64.893,15.884 L64.552,16.073 L64.173,15.981 C62.975,15.829 61.83,15.764 60.606,15.764 C57.235,15.764 53.747,16.271 49.707,16.857 C46.722,17.29 43.346,17.781 39.45,18.147 L37.665,18.315 L39.567,14.47 L28.452,9.139 L29.262,7.502 L22.586,4.301 L3.057,43.205 L9.69,47.092 L11.582,43.262 L22.232,49.508 L25.779,42.338 L26.703,42.873 C28.756,44.062 31.658,46.085 35.328,48.888 L36.308,49.636 L35.373,50.44 C35.144,50.637 34.959,50.825 34.807,51.016 C34.411,51.507 34.25,52.178 34.341,52.957 C34.507,54.379 35.495,55.982 36.86,57.044 C38.171,58.068 39.381,58.479 40.491,58.253 L41.623,58.024 L41.688,59.178 C41.759,60.449 42.308,61.627 43.233,62.492 C44.636,63.804 46.762,64.171 48.512,63.43 L49.71,62.926 L49.891,64.213 C50.048,65.333 50.572,66.336 51.406,67.114 C52.734,68.356 54.699,68.757 56.43,68.133 L57.628,67.699 L57.764,68.967 C57.864,69.901 58.291,70.763 58.965,71.392 C59.695,72.075 60.649,72.451 61.651,72.451 C61.951,72.451 62.271,72.403 62.658,72.301 L63.176,72.164 L63.176,72.164 Z" id="Fill-11" fill="#CCCCCC" sketch:type="MSShapeGroup"></path>
                <path d="M22.177476,50.211 L10,43.4574855 L28.2926546,8.479 L41,14.2405858 L22.177476,50.211 L22.177476,50.211 Z M11.3833714,43.0665136 L21.7343318,48.8051011 L39.5774965,14.7045525 L28.7781038,9.80790447 L11.3833714,43.0665136 L11.3833714,43.0665136 Z" id="Fill-4" fill="#00B289" sketch:type="MSShapeGroup"></path>
                <path d="M108.786239,50.426 L90.574,12.3658234 L102.870357,6.269 L120.574,43.2784745 L108.786239,50.426 L108.786239,50.426 Z M91.9514048,12.8567859 L109.216038,48.9382989 L119.235482,42.865812 L102.400648,7.67522671 L91.9514048,12.8567859 L91.9514048,12.8567859 Z" id="Fill-7" fill="#00B289" sketch:type="MSShapeGroup"></path>
            </g>
        </g>
    </g>
</svg>