<?xml version="1.0" encoding="UTF-8" standalone="no"?>
<svg width="99px" height="130px" viewBox="0 0 99 130" version="1.1" xmlns="http://www.w3.org/2000/svg" xmlns:xlink="http://www.w3.org/1999/xlink" xmlns:sketch="http://www.bohemiancoding.com/sketch/ns">
    <!-- Generator: Sketch 3.3.3 (12072) - http://www.bohemiancoding.com/sketch -->
    <title>welcome-watch-icon</title>
    <desc>Created with Sketch.</desc>
    <defs></defs>
    <g id="Page-1" stroke="none" stroke-width="1" fill="none" fill-rule="evenodd" sketch:type="MSPage">
        <g id="welcome-watch-icon" sketch:type="MSArtboardGroup">
            <g id="Imported-Layers" sketch:type="MSLayerGroup" transform="translate(0.000000, -1.000000)">
                <path d="M72.31,28.455 L71.542,27.971 C64.361,23.433 56.068,21.034 47.559,21.034 C39.054,21.034 30.763,23.432 23.582,27.969 L22.815,28.453 L22.815,23.565 L23.125,23.437 C38.942,16.909 56.183,16.911 72,23.438 L72.31,23.566 L72.31,28.455 L72.31,28.455 Z M47.559,20.034 C55.956,20.034 64.148,22.319 71.31,26.651 L71.31,24.236 C55.925,17.976 39.2,17.976 23.815,24.235 L23.815,26.649 C30.976,22.319 39.165,20.034 47.559,20.034 L47.559,20.034 Z" id="Fill-1" fill="#CCCCCC" sketch:type="MSShapeGroup"></path>
                <path d="M47.56,113.477 C39.255,113.477 31.033,111.823 23.125,108.561 L22.815,108.434 L22.815,103.545 L23.582,104.029 C30.763,108.566 39.053,110.964 47.559,110.964 C56.068,110.964 64.361,108.565 71.542,104.027 L72.31,103.543 L72.31,108.433 L72,108.56 C64.091,111.823 55.868,113.477 47.56,113.477 L47.56,113.477 Z M23.815,107.763 C39.199,114.021 55.924,114.022 71.31,107.762 L71.31,105.348 C64.148,109.679 55.956,111.964 47.559,111.964 C39.165,111.964 30.976,109.68 23.815,105.349 L23.815,107.763 L23.815,107.763 Z" id="Fill-2" fill="#CCCCCC" sketch:type="MSShapeGroup"></path>
                <path d="M72.31,24.648 L71.619,24.363 C56.043,17.935 39.082,17.933 23.506,24.362 L22.815,24.647 L22.815,18.818 C23.229,15.057 23.999,11.399 24.815,7.526 C25.073,6.297 25.336,5.046 25.593,3.769 L25.658,3.444 L25.982,3.377 C29.127,2.728 39.573,2.499 47.563,2.499 C55.553,2.499 65.999,2.728 69.146,3.377 L69.461,3.442 L69.532,3.756 C70.64,8.616 71.783,13.639 72.307,18.589 L72.31,24.648 L72.31,24.648 Z M47.56,18.519 C55.627,18.519 63.612,20.079 71.31,23.158 L71.31,18.642 C70.807,13.91 69.707,9.029 68.63,4.298 C65.773,3.811 57.625,3.499 47.563,3.499 C37.512,3.499 29.37,3.81 26.507,4.297 C26.271,5.463 26.029,6.606 25.793,7.732 C24.983,11.58 24.218,15.215 23.813,18.874 L23.815,23.157 C31.511,20.079 39.496,18.519 47.56,18.519 L47.56,18.519 Z" id="Fill-3" fill="#CCCCCC" sketch:type="MSShapeGroup"></path>
                <path d="M47.563,129.499 C39.573,129.499 29.127,129.269 25.981,128.619 L25.667,128.555 L25.596,128.241 C24.489,123.393 23.345,118.38 22.818,113.419 L22.815,107.352 L23.506,107.637 C39.083,114.062 56.046,114.06 71.619,107.636 L72.31,107.351 L72.31,113.167 C71.898,116.92 71.132,120.567 70.32,124.43 C70.06,125.673 69.794,126.937 69.535,128.229 L69.47,128.553 L69.146,128.619 C66,129.269 55.553,129.499 47.563,129.499 L47.563,129.499 Z M26.497,127.699 C29.352,128.187 37.502,128.499 47.563,128.499 C57.614,128.499 65.757,128.187 68.621,127.7 C68.859,126.521 69.102,125.363 69.342,124.225 C70.148,120.387 70.909,116.762 71.313,113.112 L71.31,108.84 C55.917,114.996 39.21,114.996 23.815,108.842 L23.815,113.366 C24.321,118.108 25.42,122.979 26.497,127.699 L26.497,127.699 Z" id="Fill-4" fill="#CCCCCC" sketch:type="MSShapeGroup"></path>
                <path d="M76.359,116.511 L73.323,116.511 C72.213,116.511 71.31,115.607 71.31,114.497 L71.31,104.175 L71.543,104.027 C73.675,102.681 75.692,101.158 77.539,99.504 L78.373,98.757 L78.373,114.497 C78.373,115.607 77.47,116.511 76.359,116.511 L76.359,116.511 Z M72.31,104.725 L72.31,114.497 C72.31,115.056 72.765,115.511 73.323,115.511 L76.359,115.511 C76.918,115.511 77.373,115.056 77.373,114.497 L77.373,100.977 C75.786,102.329 74.088,103.587 72.31,104.725 L72.31,104.725 Z" id="Fill-5" fill="#CCCCCC" sketch:type="MSShapeGroup"></path>
                <path d="M78.373,33.241 L77.539,32.495 C75.696,30.843 73.679,29.321 71.542,27.971 L71.31,27.823 L71.31,17.501 C71.31,16.39 72.213,15.486 73.323,15.486 L76.359,15.486 C77.47,15.486 78.373,16.39 78.373,17.501 L78.373,33.241 L78.373,33.241 Z M72.31,27.273 C74.09,28.414 75.788,29.671 77.373,31.022 L77.373,17.501 C77.373,16.941 76.918,16.486 76.359,16.486 L73.323,16.486 C72.765,16.486 72.31,16.941 72.31,17.501 L72.31,27.273 L72.31,27.273 Z" id="Fill-6" fill="#CCCCCC" sketch:type="MSShapeGroup"></path>
                <path d="M16.75,33.241 L16.75,17.501 C16.75,16.39 17.654,15.486 18.767,15.486 L21.8,15.486 C22.911,15.486 23.815,16.39 23.815,17.501 L23.815,27.821 L23.583,27.969 C21.453,29.315 19.435,30.837 17.584,32.495 L16.75,33.241 L16.75,33.241 Z M18.767,16.486 C18.206,16.486 17.75,16.941 17.75,17.501 L17.75,31.022 C19.34,29.667 21.039,28.409 22.815,27.272 L22.815,17.501 C22.815,16.941 22.359,16.486 21.8,16.486 L18.767,16.486 L18.767,16.486 Z" id="Fill-7" fill="#CCCCCC" sketch:type="MSShapeGroup"></path>
                <path d="M21.8,116.511 L18.767,116.511 C17.654,116.511 16.75,115.607 16.75,114.497 L16.75,98.758 L17.584,99.505 C19.432,101.159 21.45,102.682 23.583,104.029 L23.815,104.177 L23.815,114.497 C23.815,115.607 22.911,116.511 21.8,116.511 L21.8,116.511 Z M17.75,100.978 L17.75,114.497 C17.75,115.056 18.206,115.511 18.767,115.511 L21.8,115.511 C22.359,115.511 22.815,115.056 22.815,114.497 L22.815,104.727 C21.037,103.588 19.338,102.33 17.75,100.978 L17.75,100.978 Z" id="Fill-8" fill="#CCCCCC" sketch:type="MSShapeGroup"></path>
                <path d="M47.559,111.964 C38.864,111.964 30.389,109.513 23.049,104.875 C20.869,103.498 18.806,101.941 16.916,100.249 C7.181,91.531 1.597,79.047 1.597,65.999 C1.597,52.95 7.181,40.467 16.916,31.75 C18.809,30.055 20.872,28.499 23.048,27.123 C30.389,22.485 38.864,20.034 47.559,20.034 C56.258,20.034 64.735,22.486 72.077,27.125 C74.26,28.505 76.322,30.061 78.207,31.75 C87.942,40.466 93.526,52.949 93.526,65.999 C93.526,79.049 87.942,91.532 78.207,100.248 C76.318,101.94 74.256,103.496 72.076,104.873 C64.735,109.512 56.258,111.964 47.559,111.964 L47.559,111.964 Z M47.559,21.034 C39.054,21.034 30.763,23.432 23.582,27.969 C21.453,29.315 19.435,30.837 17.584,32.495 C8.06,41.022 2.597,53.234 2.597,65.999 C2.597,78.764 8.06,90.976 17.584,99.505 C19.432,101.159 21.45,102.682 23.583,104.029 C30.763,108.566 39.054,110.964 47.559,110.964 C56.068,110.964 64.361,108.565 71.542,104.027 C73.675,102.681 75.692,101.158 77.539,99.504 C87.064,90.977 92.526,78.765 92.526,65.999 C92.526,53.233 87.064,41.022 77.539,32.495 C75.696,30.843 73.679,29.321 71.542,27.971 C64.361,23.433 56.068,21.034 47.559,21.034 L47.559,21.034 Z M47.559,105.902 C38.574,105.902 30.085,102.977 23.008,97.441 C20.74,95.669 18.674,93.667 16.865,91.492 C10.928,84.35 7.657,75.296 7.657,65.999 C7.657,56.702 10.928,47.648 16.865,40.505 C18.676,38.329 20.742,36.327 23.008,34.555 C30.084,29.02 38.573,26.094 47.559,26.094 C56.546,26.094 65.039,29.021 72.117,34.557 C74.382,36.328 76.448,38.329 78.258,40.504 C84.196,47.647 87.467,56.701 87.467,65.999 C87.467,75.298 84.196,84.352 78.258,91.492 C76.448,93.669 74.382,95.67 72.117,97.44 C65.038,102.976 56.546,105.902 47.559,105.902 L47.559,105.902 Z M47.559,27.094 C38.799,27.094 30.523,29.946 23.623,35.343 C21.414,37.071 19.398,39.023 17.635,41.145 C11.846,48.108 8.657,56.935 8.657,65.999 C8.657,75.064 11.846,83.89 17.635,90.854 C19.398,92.973 21.412,94.925 23.623,96.654 C30.523,102.05 38.8,104.902 47.559,104.902 C56.32,104.902 64.6,102.05 71.502,96.652 C73.71,94.926 75.725,92.975 77.488,90.854 C83.278,83.892 86.467,75.065 86.467,65.999 C86.467,56.934 83.278,48.106 77.488,41.144 C75.725,39.023 73.71,37.072 71.502,35.345 C64.6,29.947 56.32,27.094 47.559,27.094 L47.559,27.094 Z" id="Fill-9" fill="#CCCCCC" sketch:type="MSShapeGroup"></path>
                <path d="M47.559,105.902 C38.574,105.902 30.085,102.977 23.008,97.441 C20.74,95.669 18.674,93.667 16.865,91.492 C10.928,84.35 7.657,75.296 7.657,65.999 C7.657,56.702 10.928,47.648 16.865,40.505 C18.676,38.329 20.742,36.328 23.008,34.555 C30.084,29.02 38.573,26.094 47.559,26.094 C56.546,26.094 65.039,29.021 72.117,34.557 C74.382,36.328 76.448,38.329 78.258,40.504 C84.196,47.647 87.467,56.701 87.467,65.999 C87.467,75.298 84.196,84.352 78.258,91.492 C76.448,93.669 74.382,95.67 72.117,97.44 C65.038,102.976 56.546,105.902 47.559,105.902 L47.559,105.902 Z M47.559,27.094 C38.799,27.094 30.523,29.946 23.623,35.343 C21.414,37.071 19.398,39.023 17.635,41.145 C11.846,48.108 8.657,56.935 8.657,65.999 C8.657,75.064 11.846,83.89 17.635,90.854 C19.398,92.973 21.412,94.925 23.623,96.654 C30.523,102.05 38.8,104.902 47.559,104.902 C56.32,104.902 64.6,102.05 71.502,96.652 C73.71,94.926 75.725,92.975 77.488,90.854 C83.278,83.892 86.467,75.065 86.467,65.999 C86.467,56.934 83.278,48.106 77.488,41.144 C75.725,39.023 73.71,37.072 71.502,35.345 C64.6,29.947 56.32,27.094 47.559,27.094 L47.559,27.094 Z" id="Fill-10" fill="#00B289" sketch:type="MSShapeGroup"></path>
                <path d="M47.559,69.531 C45.612,69.531 44.029,67.946 44.029,65.999 C44.029,65.752 44.058,65.502 44.117,65.233 C44.273,64.531 44.641,63.898 45.18,63.401 C46.341,62.338 48.134,62.182 49.458,63.026 C50.075,63.42 50.547,63.979 50.823,64.643 C51.003,65.075 51.095,65.532 51.095,65.999 C51.095,67.946 49.509,69.531 47.559,69.531 L47.559,69.531 Z M47.559,63.467 C46.934,63.467 46.329,63.705 45.856,64.138 C45.469,64.495 45.204,64.948 45.094,65.449 C45.051,65.646 45.029,65.826 45.029,65.999 C45.029,67.396 46.164,68.531 47.559,68.531 C48.957,68.531 50.095,67.396 50.095,65.999 C50.095,65.665 50.029,65.337 49.899,65.027 C49.702,64.553 49.363,64.152 48.92,63.869 C48.508,63.606 48.037,63.467 47.559,63.467 L47.559,63.467 Z" id="Fill-11" fill="#00B289" sketch:type="MSShapeGroup"></path>
                <path d="M96.027,72.745 L93.902,72.745 C93.144,72.745 92.526,72.128 92.526,71.37 L92.526,60.175 C92.526,59.417 93.144,58.8 93.902,58.8 L96.027,58.8 C96.785,58.8 97.402,59.417 97.402,60.175 L97.402,71.37 C97.402,72.128 96.785,72.745 96.027,72.745 L96.027,72.745 Z M93.902,59.8 C93.695,59.8 93.526,59.968 93.526,60.175 L93.526,71.37 C93.526,71.577 93.695,71.745 93.902,71.745 L96.027,71.745 C96.234,71.745 96.402,71.577 96.402,71.37 L96.402,60.175 C96.402,59.968 96.234,59.8 96.027,59.8 L93.902,59.8 L93.902,59.8 Z" id="Fill-12" fill="#CCCCCC" sketch:type="MSShapeGroup"></path>
                <path d="M13.657,65.999 C14.097,47.208 28.767,32.532 47.559,32.094 C48.202,32.079 48.204,31.079 47.559,31.094 C28.221,31.544 13.109,46.663 12.657,65.999 C12.643,66.644 13.643,66.643 13.657,65.999" id="Fill-13" fill="#CCCCCC" sketch:type="MSShapeGroup"></path>
                <path d="M26.867,54.615 C32.81,58.047 38.716,61.541 44.657,64.976 C45.216,65.299 45.72,64.435 45.161,64.112 C39.221,60.677 33.313,57.184 27.371,53.752 C26.813,53.429 26.309,54.293 26.867,54.615" id="Fill-14" fill="#00B289" sketch:type="MSShapeGroup"></path>
                <path d="M50.347,64.555 C58.313,57.872 66.291,51.202 74.257,44.519 C74.752,44.104 74.04,43.4 73.55,43.812 C65.584,50.495 57.606,57.165 49.64,63.848 C49.145,64.263 49.856,64.966 50.347,64.555" id="Fill-15" fill="#00B289" sketch:type="MSShapeGroup"></path>
                <path d="M47.563,130.999 C44.646,130.999 29.874,130.955 25.679,130.089 L24.419,129.829 L24.133,128.574 C23.388,125.309 22.552,121.645 21.943,118.008 C21.896,118.01 21.848,118.011 21.8,118.011 L18.767,118.011 C16.827,118.011 15.25,116.435 15.25,114.497 L15.25,100.746 C5.614,91.776 0.097,79.138 0.097,65.999 C0.097,52.86 5.614,40.222 15.25,31.253 L15.25,17.501 C15.25,15.563 16.827,13.986 18.767,13.986 L21.8,13.986 C21.869,13.986 21.938,13.988 22.007,13.993 C22.388,11.812 22.843,9.616 23.347,7.218 L23.384,7.04 C23.629,5.872 23.878,4.685 24.122,3.473 L24.384,2.176 L25.679,1.908 C28.936,1.237 39.503,0.999 47.563,0.999 C55.623,0.999 66.191,1.237 69.449,1.908 L70.709,2.169 L70.995,3.423 C71.739,6.692 72.575,10.359 73.181,13.989 C73.229,13.987 73.275,13.986 73.323,13.986 L76.359,13.986 C78.297,13.986 79.873,15.563 79.873,17.501 L79.873,31.254 C87.285,38.152 92.349,47.356 94.212,57.3 L96.027,57.3 C97.612,57.3 98.902,58.589 98.902,60.175 L98.902,71.37 C98.902,72.955 97.612,74.245 96.027,74.245 L94.298,74.245 C92.503,84.366 87.409,93.731 79.873,100.745 L79.873,114.497 C79.873,116.435 78.297,118.011 76.359,118.011 L73.323,118.011 C73.254,118.011 73.186,118.009 73.117,118.005 C72.738,120.177 72.288,122.357 71.788,124.737 C71.528,125.977 71.264,127.236 71.006,128.523 L70.746,129.821 L69.449,130.089 C65.252,130.955 50.481,130.999 47.563,130.999 L47.563,130.999 Z M26.083,128.13 C29.19,128.772 39.596,128.999 47.563,128.999 C55.531,128.999 65.938,128.772 69.045,128.13 C69.305,126.836 69.569,125.57 69.831,124.326 C70.406,121.587 70.915,119.116 71.32,116.631 L71.529,115.351 L72.714,115.878 C72.911,115.966 73.116,116.011 73.323,116.011 L76.359,116.011 C77.194,116.011 77.873,115.332 77.873,114.497 L77.873,99.865 L78.198,99.568 C85.806,92.621 90.875,83.197 92.473,73.032 L92.642,71.963 L93.694,72.215 C93.778,72.235 93.847,72.245 93.902,72.245 L96.027,72.245 C96.51,72.245 96.902,71.853 96.902,71.37 L96.902,60.175 C96.902,59.692 96.51,59.3 96.027,59.3 L93.902,59.3 C93.839,59.3 93.763,59.313 93.663,59.342 L92.586,59.651 L92.401,58.545 C90.732,48.544 85.688,39.27 78.198,32.43 L77.873,32.133 L77.873,17.501 C77.873,16.666 77.194,15.986 76.359,15.986 L73.323,15.986 C73.125,15.986 72.93,16.025 72.743,16.103 L71.565,16.593 L71.371,15.333 C70.769,11.439 69.852,7.416 69.045,3.867 C65.934,3.226 55.529,2.999 47.563,2.999 C39.598,2.999 29.191,3.226 26.083,3.867 L26.083,3.868 C25.838,5.085 25.588,6.277 25.341,7.451 L25.304,7.629 C24.724,10.389 24.21,12.876 23.804,15.366 L23.595,16.646 L22.41,16.119 C22.213,16.031 22.007,15.986 21.8,15.986 L18.767,15.986 C17.931,15.986 17.25,16.666 17.25,17.501 L17.25,32.132 L16.925,32.43 C7.501,41.037 2.097,53.273 2.097,65.999 C2.097,78.726 7.501,90.961 16.925,99.569 L17.25,99.866 L17.25,114.497 C17.25,115.332 17.931,116.011 18.767,116.011 L21.8,116.011 C21.999,116.011 22.194,115.972 22.38,115.894 L23.558,115.404 L23.753,116.664 C24.356,120.567 25.274,124.585 26.083,128.13 L26.083,128.13 Z" id="Fill-16" fill="#CCCCCC" sketch:type="MSShapeGroup"></path>
            </g>
        </g>
    </g>
</svg>