<?xml version="1.0" encoding="utf-8"?>
<!-- Generator: Adobe Illustrator 22.0.1, SVG Export Plug-In . SVG Version: 6.00 Build 0)  -->
<svg version="1.1" id="Logo" xmlns="http://www.w3.org/2000/svg" xmlns:xlink="http://www.w3.org/1999/xlink" x="0px" y="0px"
	 viewBox="0 0 1389.7 339.5" style="enable-background:new 0 0 1389.7 339.5;" xml:space="preserve">
<style type="text/css">
	.st0{fill:#FFFFFF;}
	.st1{fill:url(#SVGID_1_);}
	.st2{opacity:0.21;fill:#FFFFFF;enable-background:new    ;}
	.st3{opacity:0.5;clip-path:url(#SVGID_3_);}
	.st4{fill:url(#T_1_);}
	.st5{fill:#DAD3CA;}
	.st6{clip-path:url(#SVGID_5_);fill:url(#Blinks_1_);}
	.st7{clip-path:url(#SVGID_7_);fill:url(#Shadow_1_);}
	.st8{fill:url(#T_part_1_);}
	.st9{fill:#8CBA55;}
</style>
<g id="Logo_1_">
	<g id="Text_3_">
		<g>
			<path class="st0" d="M575.5,239.8h72.8l-0.5,15.1c-9.5-0.7-18.3-1.1-26.7-1.1c0,9-0.2,19-0.2,29.8c0,17,0.2,33.2,0.7,48.4h-19.9
				c0.7-15.1,0.9-31.2,0.9-48.4c0-10.9,0-20.8-0.2-29.8c-6.6,0-15.8,0.5-27.4,1.1L575.5,239.8z M670.1,272.4h-1.1
				c0-0.9-0.5-3.8-1.1-9l-18.1,2c2.3,10.2,3.6,20.8,3.6,32.1c0,9-0.5,20.6-1.1,34.8H671c-0.2-10.2-0.5-24.6-0.5-43.6
				c2.3-6.3,6.8-9.3,13.8-9.3c3.6,0,7.2,0.7,10.6,2l4.1-16.5c-4.3-1.6-8.1-2.3-11.5-2.3C680.2,262.5,674.4,265.6,670.1,272.4z
				 M763.4,308.1c0,9.7,0.7,17.9,2.3,24l-16.7,0.7c-0.7-2-1.1-3.8-1.1-5.4h-0.9c-5.2,4.5-12.2,6.6-21,6.6c-5.9,0-10.9-1.6-14.7-5
				c-3.8-3.4-5.9-7.7-5.9-13.1c0-7.2,2.9-13.1,9-17.6s16.7-7,31.9-7.2c0-0.9,0.2-1.6,0.2-2.5c0-5.2-1.1-8.4-3.6-10.2
				c-2.5-1.6-7-2.5-13.6-2.5c-7.2,0-14,0.9-21,2.9l1.6-13.1c6.3-2.3,15.6-3.4,27.4-3.4c8.6,0,15.1,1.8,19.9,5.4s7,9.9,7,18.8
				c0,2,0,5.7-0.2,10.9C763.7,302.7,763.4,306.3,763.4,308.1z M746.9,317.4c-0.2-6.3-0.5-12-0.5-16.5c-16.1,0-24.2,4.1-24.2,12.2
				c0,5.7,3.6,8.4,10.6,8.4C738.3,321.5,743.1,320.1,746.9,317.4z M842.8,279.4c0,21,0.5,38.4,1.6,52.7l-16.7,0.7
				c-0.2-1.6-0.5-3.4-0.5-5.2h-1.1c-5.2,4.5-11.8,6.8-19.9,6.8c-9,0-16.3-3.4-21.7-9.9c-5.4-6.6-7.9-14.5-7.9-23.5
				c0-10.4,2.9-19.4,8.8-27.1c5.9-7.7,14-11.5,24.2-11.5c6.8,0,11.8,1.4,15.1,3.8h0.9c0-11.1-0.5-22.4-1.6-33.7l20.1-0.7
				C843.3,242.8,842.8,258.6,842.8,279.4z M826.5,316c0-15.1-0.5-27.6-1.1-37.5c-3.2-2.3-7.2-3.4-11.8-3.4c-6.3,0-10.9,2.3-14,7
				c-3.2,4.7-4.5,10.4-4.5,17c0,5.9,1.4,11.1,4.3,15.4c2.9,4.3,7,6.6,12.2,6.6C818.8,321,823.8,319.4,826.5,316z M920.6,300.7
				l-45.7,0.7c0.7,5.4,2.9,9.7,6.8,13.3c3.8,3.6,9,5.4,15.4,5.4c7,0,14.7-1.1,22.6-3.2l-1.4,13.8c-6.6,2.3-14.7,3.6-24.2,3.6
				c-12.2,0-21.5-3.4-28-10.4c-6.6-6.8-9.7-15.1-9.7-24.9c0-10.2,3.2-18.8,9.3-26.2c6.1-7.5,14.7-11.1,25.8-11.1
				c9.9,0,17.4,2.7,22.4,8.1s7.2,12.4,7.2,21.3C921,293.7,920.8,296.8,920.6,300.7z M904.5,290.5c0-10.9-4.5-16.3-14-16.3
				c-8.8,0-14,5.7-15.8,17L904.5,290.5z"/>
		</g>
		<g>
			<g>
				
					<linearGradient id="SVGID_1_" gradientUnits="userSpaceOnUse" x1="925.4526" y1="275.9889" x2="925.4526" y2="154.116" gradientTransform="matrix(1 0 0 -1 0 342)">
					<stop  offset="0.2492" style="stop-color:#A8A49E"/>
					<stop  offset="0.441" style="stop-color:#A4A09A"/>
					<stop  offset="0.6514" style="stop-color:#98928F"/>
					<stop  offset="0.8699" style="stop-color:#847D7D"/>
					<stop  offset="0.9692" style="stop-color:#787072"/>
				</linearGradient>
				<path class="st1" d="M644.5,82.7c-7.5-4.7-16.5-7.2-27.1-7.2c-4.3,0-9.3,0-14.9,0.2C596.8,76,593,76,590.9,76h-15.8v1.4
					c0.7,14.2,1.1,31.2,1.1,50.9c0,21.3-0.5,40-1.1,55.8v1.4h26V184c-0.7-16.1-0.9-29.2-0.9-39.1c1.1,0,2.5,0,4.1,0
					c14.2,0,26.7-3.2,36.4-9.5c10.2-6.6,15.1-16.5,15.1-30.1C655.8,95.2,652.2,87.7,644.5,82.7z M632.1,109.7
					c0,11.8-9.3,17.6-28.5,17.6c-1.1,0-2.3,0-3.4,0c0-12-0.2-23.1-0.9-32.6c3.8-0.7,7.5-0.9,10.9-0.9
					C624.8,93.6,632.1,98.8,632.1,109.7z M693.1,67.6c-0.9,15.4-1.1,34.1-1.1,55.6c0,21.9,0.5,42.3,1.1,60.8v1.4h-25.3V184
					c0.9-18.5,1.1-39.1,1.1-60.8c0-21.3-0.9-39.3-2.5-54.3l-0.2-1.6l26.9-1.4V67.6z M776.1,156.2c0-2,0-6.1,0.2-12
					c0.2-6.1,0.2-10.4,0.2-12.7c0-10.9-2.9-18.5-8.6-22.8c-5.7-4.3-13.6-6.6-23.7-6.6c-13.6,0-24.4,1.4-31.9,3.8l-0.9,0.2l-2.3,18.1
					l2-0.5c7.7-2.3,15.8-3.2,23.7-3.2c7.2,0,12.2,0.9,14.9,2.5c2.5,1.6,3.6,5.2,3.6,10.6c0,0.5,0,0.9,0,1.4
					c-17.2,0.5-29.4,3.4-36.4,8.8c-7.5,5.7-11.1,12.9-11.1,21.5c0,6.8,2.5,12.2,7.2,16.3c4.7,4.1,10.9,6.1,17.9,6.1
					c9.9,0,18.1-2.5,24.2-7.2c0.2,1.6,0.7,3.2,1.4,4.7l0.5,0.9l22.2-0.7l-0.5-1.6C777,176.6,776.1,167.3,776.1,156.2z M753.9,166.2
					c-3.8,2.7-8.8,4.1-14.7,4.1c-9.7,0-10.9-4.7-10.9-8.4c0-8.4,8.4-12.7,25.1-12.9C753.5,154.2,753.7,159.8,753.9,166.2z
					 M841.2,167.3l2-0.5l-1.6,17.4l-0.7,0.2c-4.1,1.8-9,2.5-14.9,2.5c-9.3,0-16.3-2.5-21-7.7c-4.7-5.2-7-14.5-7-28.7
					c0-7.9,0-16.7,0.2-26.7c-2.5,0-5.9,0.2-9.7,0.5H787l0.7-19.2l1.4,0.2c3.6,0.2,7,0.5,10.2,0.5c0-3.6,0.2-10.9,0.7-21.5v-1.1
					l22.4-2.7l-0.2,1.8c-0.7,9.9-1.1,17.9-1.1,23.7c4.5,0,10.9-0.2,19.2-0.7h1.6l-0.7,19.2h-1.4c-7.5-0.2-13.8-0.5-18.8-0.5
					c0,6.8-0.2,14-0.2,21.5c0,9.5,0.9,15.8,2.7,18.8c1.8,2.9,4.7,4.3,9.3,4.3C834.9,168.7,838.1,168.2,841.2,167.3z M879,71.9
					c2.3,2.7,3.6,5.9,3.6,9.5c0,4.1-1.4,7.7-4.1,10.6c-2.7,3.2-6.8,4.7-11.8,4.7c-4.3,0-7.7-1.4-9.9-4.1c-2.5-2.7-3.6-5.9-3.6-9.7
					c0-4.1,1.4-7.7,4.1-10.6c2.7-2.9,6.8-4.5,11.8-4.5C873.1,67.8,876.5,69.2,879,71.9z M878.8,184v1.6h-25.1V184
					c0.7-11.3,1.1-24.4,1.1-38.9c0-14.5-0.9-27.1-2.7-38l-0.2-1.6l26.7-2.7l-0.2,1.6c-0.7,10.6-1.1,24.2-1.1,40.5
					C877.6,159.2,877.9,172.1,878.8,184z M971.2,184v1.4h-24.6l0.2-1.6c1.1-13.8,1.8-27.8,1.8-41.8c0-8.1-1.1-13.8-3.4-16.5
					s-5.7-4.1-10.6-4.1c-5.7,0-11.1,1.8-16.3,5.7c0.2,21,0.5,40,0.5,57v1.4h-24.9v-1.6c0.9-17,1.6-30.5,1.6-40.2
					c0-12.9-1.4-25.3-4.1-36.6l-0.5-1.6l24-2.7l1.4,8.6c7.5-6.3,16.3-9.5,26-9.5c8.6,0,15.8,2,21,6.3c5.4,4.3,8.1,12,8.1,23.1
					c0,1.6,0,3.8-0.2,6.3c-0.2,2.7-0.2,5.4-0.2,8.1C971,153.5,971,166.2,971.2,184z M1062.8,183.8l0.2,1.6l-21.7,0.7l-0.2-1.1
					c-0.7-2.3-1.1-4.1-1.4-5.7c-7.2,5.7-15.6,8.6-25.1,8.6c-9.3,0-16.5-2.5-21.5-7.5c-5-5-7.2-14.7-7.2-29.4c0-1.8,0-4.1,0.2-7.2
					c0-2.9,0.2-5.7,0.2-7.9c0-5.9-0.5-15.6-1.6-28.9l-0.2-1.4l26-0.9l-0.2,1.6c-0.9,10.4-1.4,20.3-1.4,29.8
					c0,13.1,0.9,22.2,2.9,26.5c1.8,4.1,5.2,6.1,10.4,6.1c5.9,0,10.9-1.4,15.1-4.1c0-28.3-0.2-47.7-0.9-57.7v-1.4l25.1-1.1v1.6
					c-0.5,10.2-0.9,23.7-0.9,40C1060.8,158.3,1061.5,170.9,1062.8,183.8z M1201.9,184v1.4h-24.6l0.2-1.6c1.1-13.8,1.8-27.4,1.8-40.2
					c0-9.5-1.1-15.6-3.4-18.3c-2.3-2.7-5.9-4.1-11.1-4.1c-4.1,0-8.1,1.4-12.7,4.3c-0.2,6.6-0.2,12.4-0.2,17.6
					c0,9.3,0.2,22.8,0.5,40.9v1.4h-24.9l0.2-1.6c1.1-14.9,1.8-29.6,1.8-43.6c0-7-0.9-12-2.9-14.9c-1.8-2.7-5.7-4.1-11.5-4.1
					c-5.4,0-9.7,1.6-13.3,5.2c0.2,21.3,0.5,40.7,0.5,57.4v1.4h-24.9v-1.6c0.9-17,1.6-30.5,1.6-40.2c0-12.7-1.4-24.9-4.1-36.6
					l-0.5-1.6l24-2.7l1.4,8.6c7.2-6.1,15.4-9.3,24.2-9.3c11.3,0,19.4,3.2,24.2,9.7h0.2c8.1-6.3,16.5-9.7,24.4-9.7
					c9.5,0,17,2,21.9,6.3c5,4.3,7.7,12,7.7,22.8c0,1.1,0,2.9-0.2,6.1c0,2.9-0.2,5-0.2,5.9C1201.6,152.4,1201.6,166,1201.9,184z
					 M1275.8,161.7c0,17.2-12.7,26-37.8,26c-9,0-17-0.9-23.5-2.9l-1.1-0.5l3.4-19l1.6,0.5c6.6,2.5,13.3,3.6,19.9,3.6
					c6.3,0,10.9-0.5,13.1-1.6c2-0.9,2.9-2.3,2.9-4.3c0-3.4-4.5-6.8-12.9-10.2c-8.1-3.2-14.2-6.3-17.9-9.5
					c-5.4-4.5-8.1-10.2-8.1-16.7c0-7.7,2.9-14,8.6-18.5s13.8-7,24.4-7c9.7,0,17.6,0.9,23.3,2.7l1.1,0.5l-3.4,19.2l-1.6-0.7
					c-6.1-2.3-12.7-3.6-19.4-3.6c-7.7,0-11.8,1.8-11.8,5.4c0,1.8,0.7,3.4,2.3,4.5c1.8,1.4,5.4,2.9,11.1,5.2c8.1,2.9,14,6.1,17.6,9.3
					C1273.1,148.3,1275.8,154.4,1275.8,161.7z"/>
				<path class="st2" d="M644.5,82.7c-7.5-4.7-16.5-7.2-27.1-7.2c-4.3,0-9.3,0-14.9,0.2C596.8,76,593,76,590.9,76h-15.8v1.4
					c0.7,14.2,1.1,31.2,1.1,50.9c0,21.3-0.5,40-1.1,55.8v1.4h26V184c-0.7-16.1-0.9-29.2-0.9-39.1c1.1,0,2.5,0,4.1,0
					c14.2,0,26.7-3.2,36.4-9.5c10.2-6.6,15.1-16.5,15.1-30.1C655.8,95.2,652.2,87.7,644.5,82.7z M632.1,109.7
					c0,11.8-9.3,17.6-28.5,17.6c-1.1,0-2.3,0-3.4,0c0-12-0.2-23.1-0.9-32.6c3.8-0.7,7.5-0.9,10.9-0.9
					C624.8,93.6,632.1,98.8,632.1,109.7z M693.1,67.6c-0.9,15.4-1.1,34.1-1.1,55.6c0,21.9,0.5,42.3,1.1,60.8v1.4h-25.3V184
					c0.9-18.5,1.1-39.1,1.1-60.8c0-21.3-0.9-39.3-2.5-54.3l-0.2-1.6l26.9-1.4V67.6z M776.1,156.2c0-2,0-6.1,0.2-12
					c0.2-6.1,0.2-10.4,0.2-12.7c0-10.9-2.9-18.5-8.6-22.8c-5.7-4.3-13.6-6.6-23.7-6.6c-13.6,0-24.4,1.4-31.9,3.8l-0.9,0.2l-2.3,18.1
					l2-0.5c7.7-2.3,15.8-3.2,23.7-3.2c7.2,0,12.2,0.9,14.9,2.5c2.5,1.6,3.6,5.2,3.6,10.6c0,0.5,0,0.9,0,1.4
					c-17.2,0.5-29.4,3.4-36.4,8.8c-7.5,5.7-11.1,12.9-11.1,21.5c0,6.8,2.5,12.2,7.2,16.3c4.7,4.1,10.9,6.1,17.9,6.1
					c9.9,0,18.1-2.5,24.2-7.2c0.2,1.6,0.7,3.2,1.4,4.7l0.5,0.9l22.2-0.7l-0.5-1.6C777,176.6,776.1,167.3,776.1,156.2z M753.9,166.2
					c-3.8,2.7-8.8,4.1-14.7,4.1c-9.7,0-10.9-4.7-10.9-8.4c0-8.4,8.4-12.7,25.1-12.9C753.5,154.2,753.7,159.8,753.9,166.2z
					 M841.2,167.3l2-0.5l-1.6,17.4l-0.7,0.2c-4.1,1.8-9,2.5-14.9,2.5c-9.3,0-16.3-2.5-21-7.7c-4.7-5.2-7-14.5-7-28.7
					c0-7.9,0-16.7,0.2-26.7c-2.5,0-5.9,0.2-9.7,0.5H787l0.7-19.2l1.4,0.2c3.6,0.2,7,0.5,10.2,0.5c0-3.6,0.2-10.9,0.7-21.5v-1.1
					l22.4-2.7l-0.2,1.8c-0.7,9.9-1.1,17.9-1.1,23.7c4.5,0,10.9-0.2,19.2-0.7h1.6l-0.7,19.2h-1.4c-7.5-0.2-13.8-0.5-18.8-0.5
					c0,6.8-0.2,14-0.2,21.5c0,9.5,0.9,15.8,2.7,18.8c1.8,2.9,4.7,4.3,9.3,4.3C834.9,168.7,838.1,168.2,841.2,167.3z M879,71.9
					c2.3,2.7,3.6,5.9,3.6,9.5c0,4.1-1.4,7.7-4.1,10.6c-2.7,3.2-6.8,4.7-11.8,4.7c-4.3,0-7.7-1.4-9.9-4.1c-2.5-2.7-3.6-5.9-3.6-9.7
					c0-4.1,1.4-7.7,4.1-10.6c2.7-2.9,6.8-4.5,11.8-4.5C873.1,67.8,876.5,69.2,879,71.9z M878.8,184v1.6h-25.1V184
					c0.7-11.3,1.1-24.4,1.1-38.9c0-14.5-0.9-27.1-2.7-38l-0.2-1.6l26.7-2.7l-0.2,1.6c-0.7,10.6-1.1,24.2-1.1,40.5
					C877.6,159.2,877.9,172.1,878.8,184z M971.2,184v1.4h-24.6l0.2-1.6c1.1-13.8,1.8-27.8,1.8-41.8c0-8.1-1.1-13.8-3.4-16.5
					s-5.7-4.1-10.6-4.1c-5.7,0-11.1,1.8-16.3,5.7c0.2,21,0.5,40,0.5,57v1.4h-24.9v-1.6c0.9-17,1.6-30.5,1.6-40.2
					c0-12.9-1.4-25.3-4.1-36.6l-0.5-1.6l24-2.7l1.4,8.6c7.5-6.3,16.3-9.5,26-9.5c8.6,0,15.8,2,21,6.3c5.4,4.3,8.1,12,8.1,23.1
					c0,1.6,0,3.8-0.2,6.3c-0.2,2.7-0.2,5.4-0.2,8.1C971,153.5,971,166.2,971.2,184z M1062.8,183.8l0.2,1.6l-21.7,0.7l-0.2-1.1
					c-0.7-2.3-1.1-4.1-1.4-5.7c-7.2,5.7-15.6,8.6-25.1,8.6c-9.3,0-16.5-2.5-21.5-7.5c-5-5-7.2-14.7-7.2-29.4c0-1.8,0-4.1,0.2-7.2
					c0-2.9,0.2-5.7,0.2-7.9c0-5.9-0.5-15.6-1.6-28.9l-0.2-1.4l26-0.9l-0.2,1.6c-0.9,10.4-1.4,20.3-1.4,29.8
					c0,13.1,0.9,22.2,2.9,26.5c1.8,4.1,5.2,6.1,10.4,6.1c5.9,0,10.9-1.4,15.1-4.1c0-28.3-0.2-47.7-0.9-57.7v-1.4l25.1-1.1v1.6
					c-0.5,10.2-0.9,23.7-0.9,40C1060.8,158.3,1061.5,170.9,1062.8,183.8z M1201.9,184v1.4h-24.6l0.2-1.6c1.1-13.8,1.8-27.4,1.8-40.2
					c0-9.5-1.1-15.6-3.4-18.3c-2.3-2.7-5.9-4.1-11.1-4.1c-4.1,0-8.1,1.4-12.7,4.3c-0.2,6.6-0.2,12.4-0.2,17.6
					c0,9.3,0.2,22.8,0.5,40.9v1.4h-24.9l0.2-1.6c1.1-14.9,1.8-29.6,1.8-43.6c0-7-0.9-12-2.9-14.9c-1.8-2.7-5.7-4.1-11.5-4.1
					c-5.4,0-9.7,1.6-13.3,5.2c0.2,21.3,0.5,40.7,0.5,57.4v1.4h-24.9v-1.6c0.9-17,1.6-30.5,1.6-40.2c0-12.7-1.4-24.9-4.1-36.6
					l-0.5-1.6l24-2.7l1.4,8.6c7.2-6.1,15.4-9.3,24.2-9.3c11.3,0,19.4,3.2,24.2,9.7h0.2c8.1-6.3,16.5-9.7,24.4-9.7
					c9.5,0,17,2,21.9,6.3c5,4.3,7.7,12,7.7,22.8c0,1.1,0,2.9-0.2,6.1c0,2.9-0.2,5-0.2,5.9C1201.6,152.4,1201.6,166,1201.9,184z
					 M1275.8,161.7c0,17.2-12.7,26-37.8,26c-9,0-17-0.9-23.5-2.9l-1.1-0.5l3.4-19l1.6,0.5c6.6,2.5,13.3,3.6,19.9,3.6
					c6.3,0,10.9-0.5,13.1-1.6c2-0.9,2.9-2.3,2.9-4.3c0-3.4-4.5-6.8-12.9-10.2c-8.1-3.2-14.2-6.3-17.9-9.5
					c-5.4-4.5-8.1-10.2-8.1-16.7c0-7.7,2.9-14,8.6-18.5s13.8-7,24.4-7c9.7,0,17.6,0.9,23.3,2.7l1.1,0.5l-3.4,19.2l-1.6-0.7
					c-6.1-2.3-12.7-3.6-19.4-3.6c-7.7,0-11.8,1.8-11.8,5.4c0,1.8,0.7,3.4,2.3,4.5c1.8,1.4,5.4,2.9,11.1,5.2c8.1,2.9,14,6.1,17.6,9.3
					C1273.1,148.3,1275.8,154.4,1275.8,161.7z"/>
			</g>
			<g>
				<g>
					<defs>
						<path id="SVGID_2_" d="M644.5,82.7c-7.5-4.7-16.5-7.2-27.1-7.2c-4.3,0-9.3,0-14.9,0.2C596.8,76,593,76,590.9,76h-15.8v1.4
							c0.7,14.2,1.1,31.2,1.1,50.9c0,21.3-0.5,40-1.1,55.8v1.4h26V184c-0.7-16.1-0.9-29.2-0.9-39.1c1.1,0,2.5,0,4.1,0
							c14.2,0,26.7-3.2,36.4-9.5c10.2-6.6,15.1-16.5,15.1-30.1C655.8,95.2,652.2,87.7,644.5,82.7z M632.1,109.7
							c0,11.8-9.3,17.6-28.5,17.6c-1.1,0-2.3,0-3.4,0c0-12-0.2-23.1-0.9-32.6c3.8-0.7,7.5-0.9,10.9-0.9
							C624.8,93.6,632.1,98.8,632.1,109.7z M693.1,67.6c-0.9,15.4-1.1,34.1-1.1,55.6c0,21.9,0.5,42.3,1.1,60.8v1.4h-25.3V184
							c0.9-18.5,1.1-39.1,1.1-60.8c0-21.3-0.9-39.3-2.5-54.3l-0.2-1.6l26.9-1.4V67.6z M776.1,156.2c0-2,0-6.1,0.2-12
							c0.2-6.1,0.2-10.4,0.2-12.7c0-10.9-2.9-18.5-8.6-22.8c-5.7-4.3-13.6-6.6-23.7-6.6c-13.6,0-24.4,1.4-31.9,3.8l-0.9,0.2
							l-2.3,18.1l2-0.5c7.7-2.3,15.8-3.2,23.7-3.2c7.2,0,12.2,0.9,14.9,2.5c2.5,1.6,3.6,5.2,3.6,10.6c0,0.5,0,0.9,0,1.4
							c-17.2,0.5-29.4,3.4-36.4,8.8c-7.5,5.7-11.1,12.9-11.1,21.5c0,6.8,2.5,12.2,7.2,16.3c4.7,4.1,10.9,6.1,17.9,6.1
							c9.9,0,18.1-2.5,24.2-7.2c0.2,1.6,0.7,3.2,1.4,4.7l0.5,0.9l22.2-0.7l-0.5-1.6C777,176.6,776.1,167.3,776.1,156.2z
							 M753.9,166.2c-3.8,2.7-8.8,4.1-14.7,4.1c-9.7,0-10.9-4.7-10.9-8.4c0-8.4,8.4-12.7,25.1-12.9
							C753.5,154.2,753.7,159.8,753.9,166.2z M841.2,167.3l2-0.5l-1.6,17.4l-0.7,0.2c-4.1,1.8-9,2.5-14.9,2.5
							c-9.3,0-16.3-2.5-21-7.7c-4.7-5.2-7-14.5-7-28.7c0-7.9,0-16.7,0.2-26.7c-2.5,0-5.9,0.2-9.7,0.5H787l0.7-19.2l1.4,0.2
							c3.6,0.2,7,0.5,10.2,0.5c0-3.6,0.2-10.9,0.7-21.5v-1.1l22.4-2.7l-0.2,1.8c-0.7,9.9-1.1,17.9-1.1,23.7c4.5,0,10.9-0.2,19.2-0.7
							h1.6l-0.7,19.2h-1.4c-7.5-0.2-13.8-0.5-18.8-0.5c0,6.8-0.2,14-0.2,21.5c0,9.5,0.9,15.8,2.7,18.8c1.8,2.9,4.7,4.3,9.3,4.3
							C834.9,168.7,838.1,168.2,841.2,167.3z M879,71.9c2.3,2.7,3.6,5.9,3.6,9.5c0,4.1-1.4,7.7-4.1,10.6c-2.7,3.2-6.8,4.7-11.8,4.7
							c-4.3,0-7.7-1.4-9.9-4.1c-2.5-2.7-3.6-5.9-3.6-9.7c0-4.1,1.4-7.7,4.1-10.6c2.7-2.9,6.8-4.5,11.8-4.5
							C873.1,67.8,876.5,69.2,879,71.9z M878.8,184v1.6h-25.1V184c0.7-11.3,1.1-24.4,1.1-38.9c0-14.5-0.9-27.1-2.7-38l-0.2-1.6
							l26.7-2.7l-0.2,1.6c-0.7,10.6-1.1,24.2-1.1,40.5C877.6,159.2,877.9,172.1,878.8,184z M971.2,184v1.4h-24.6l0.2-1.6
							c1.1-13.8,1.8-27.8,1.8-41.8c0-8.1-1.1-13.8-3.4-16.5s-5.7-4.1-10.6-4.1c-5.7,0-11.1,1.8-16.3,5.7c0.2,21,0.5,40,0.5,57v1.4
							h-24.9v-1.6c0.9-17,1.6-30.5,1.6-40.2c0-12.9-1.4-25.3-4.1-36.6l-0.5-1.6l24-2.7l1.4,8.6c7.5-6.3,16.3-9.5,26-9.5
							c8.6,0,15.8,2,21,6.3c5.4,4.3,8.1,12,8.1,23.1c0,1.6,0,3.8-0.2,6.3c-0.2,2.7-0.2,5.4-0.2,8.1C971,153.5,971,166.2,971.2,184z
							 M1062.8,183.8l0.2,1.6l-21.7,0.7l-0.2-1.1c-0.7-2.3-1.1-4.1-1.4-5.7c-7.2,5.7-15.6,8.6-25.1,8.6c-9.3,0-16.5-2.5-21.5-7.5
							c-5-5-7.2-14.7-7.2-29.4c0-1.8,0-4.1,0.2-7.2c0-2.9,0.2-5.7,0.2-7.9c0-5.9-0.5-15.6-1.6-28.9l-0.2-1.4l26-0.9l-0.2,1.6
							c-0.9,10.4-1.4,20.3-1.4,29.8c0,13.1,0.9,22.2,2.9,26.5c1.8,4.1,5.2,6.1,10.4,6.1c5.9,0,10.9-1.4,15.1-4.1
							c0-28.3-0.2-47.7-0.9-57.7v-1.4l25.1-1.1v1.6c-0.5,10.2-0.9,23.7-0.9,40C1060.8,158.3,1061.5,170.9,1062.8,183.8z M1201.9,184
							v1.4h-24.6l0.2-1.6c1.1-13.8,1.8-27.4,1.8-40.2c0-9.5-1.1-15.6-3.4-18.3c-2.3-2.7-5.9-4.1-11.1-4.1c-4.1,0-8.1,1.4-12.7,4.3
							c-0.2,6.6-0.2,12.4-0.2,17.6c0,9.3,0.2,22.8,0.5,40.9v1.4h-24.9l0.2-1.6c1.1-14.9,1.8-29.6,1.8-43.6c0-7-0.9-12-2.9-14.9
							c-1.8-2.7-5.7-4.1-11.5-4.1c-5.4,0-9.7,1.6-13.3,5.2c0.2,21.3,0.5,40.7,0.5,57.4v1.4h-24.9v-1.6c0.9-17,1.6-30.5,1.6-40.2
							c0-12.7-1.4-24.9-4.1-36.6l-0.5-1.6l24-2.7l1.4,8.6c7.2-6.1,15.4-9.3,24.2-9.3c11.3,0,19.4,3.2,24.2,9.7h0.2
							c8.1-6.3,16.5-9.7,24.4-9.7c9.5,0,17,2,21.9,6.3c5,4.3,7.7,12,7.7,22.8c0,1.1,0,2.9-0.2,6.1c0,2.9-0.2,5-0.2,5.9
							C1201.6,152.4,1201.6,166,1201.9,184z M1275.8,161.7c0,17.2-12.7,26-37.8,26c-9,0-17-0.9-23.5-2.9l-1.1-0.5l3.4-19l1.6,0.5
							c6.6,2.5,13.3,3.6,19.9,3.6c6.3,0,10.9-0.5,13.1-1.6c2-0.9,2.9-2.3,2.9-4.3c0-3.4-4.5-6.8-12.9-10.2
							c-8.1-3.2-14.2-6.3-17.9-9.5c-5.4-4.5-8.1-10.2-8.1-16.7c0-7.7,2.9-14,8.6-18.5s13.8-7,24.4-7c9.7,0,17.6,0.9,23.3,2.7
							l1.1,0.5l-3.4,19.2l-1.6-0.7c-6.1-2.3-12.7-3.6-19.4-3.6c-7.7,0-11.8,1.8-11.8,5.4c0,1.8,0.7,3.4,2.3,4.5
							c1.8,1.4,5.4,2.9,11.1,5.2c8.1,2.9,14,6.1,17.6,9.3C1273.1,148.3,1275.8,154.4,1275.8,161.7z"/>
					</defs>
					<clipPath id="SVGID_3_">
						<use xlink:href="#SVGID_2_"  style="overflow:visible;"/>
					</clipPath>
					<g id="Blink_2_" class="st3">
						<path class="st0" d="M792.2,25.3c6.6-4.1,8.4-12.9,4.3-19.2s-12.9-8.4-19.2-4.3L503.9,175.9c-6.6,4.1-8.4,12.9-4.3,19.2
							c4.1,6.3,12.9,8.4,19.2,4.3L792.2,25.3z"/>
						<path class="st0" d="M924.9,50.6c-4.1-6.6-12.9-8.4-19.2-4.3L632.3,220.4c-6.6,4.1-8.4,12.9-4.3,19.2
							c4.1,6.6,12.9,8.4,19.2,4.3L920.6,69.9C927.1,66,929.2,57.2,924.9,50.6z"/>
						<path class="st0" d="M1020.1,67.6c-4.1-6.6-12.9-8.4-19.2-4.3L727.5,237.4c-6.6,4.1-8.4,12.9-4.3,19.2
							c4.1,6.3,12.9,8.4,19.2,4.3l273.4-174.1C1022.1,82.7,1024.1,73.9,1020.1,67.6z"/>
						<path class="st0" d="M1098.3,42.7c-1.1-1.6-3.2-2-5-1.1L802.3,227c-1.6,1.1-2,3.2-1.1,5c1.1,1.6,3.2,2,5,1.1l291-185.4
							C1098.8,46.6,1099.2,44.3,1098.3,42.7z"/>
						<path class="st0" d="M1238,48.4c-1.1-1.6-3.2-2-5-1.1l-291,185.4c-1.6,1.1-2,3.2-1.1,5c1.1,1.6,3.2,2,5,1.1l291-185.4
							C1238.5,52.2,1239,50,1238,48.4z"/>
						<path class="st0" d="M1268.8,58.3l-3.8-5.9c-1.1-1.6-3.2-2-5-1.1L969,236.7c-1.6,1.1-2,3.2-1.1,5l3.8,5.9c1.1,1.6,3.2,2,5,1.1
							l291-185.4C1269.5,62.4,1269.9,60.1,1268.8,58.3z"/>
						<path class="st0" d="M1352.7,58.3l-3.8-5.9c-1.1-1.6-3.2-2-5-1.1l-291,185.4c-1.6,1.1-2,3.2-1.1,5l3.8,5.9
							c1.1,1.6,3.2,2,5,1.1l291-185.4C1353.1,62.4,1353.6,60.1,1352.7,58.3z"/>
						<path class="st0" d="M1375.1,80.7l-3.8-5.9c-1.1-1.6-3.2-2-5-1.1l-291,185.4c-1.6,1.1-2,3.2-1.1,5l3.8,5.9
							c1.1,1.6,3.2,2,5,1.1l291-185.4C1375.5,84.6,1376,82.5,1375.1,80.7z"/>
						<path class="st0" d="M812.7,31l-0.5-0.9c-1.1-1.6-3.2-2-5-1.1l-291,185.4c-1.6,1.1-2,3.2-1.1,5l0.5,0.9c1.1,1.6,3.2,2,5,1.1
							l291-185.4C813.4,34.8,813.9,32.5,812.7,31z"/>
						<path class="st0" d="M1176.1,31l-0.5-0.9c-1.1-1.6-3.2-2-5-1.1l-291,185.4c-1.6,1.1-2,3.2-1.1,5l0.5,0.9c1.1,1.6,3.2,2,5,1.1
							l291-185.4C1176.8,34.8,1177.2,32.5,1176.1,31z"/>
						<path class="st0" d="M1198.5,31l-0.5-0.9c-1.1-1.6-3.2-2-5-1.1l-291,185.4c-1.6,1.1-2,3.2-1.1,5l0.5,0.9c1.1,1.6,3.2,2,5,1.1
							l291-185.4C1199.2,34.8,1199.6,32.5,1198.5,31z"/>
						<path class="st0" d="M734.5-13.8l-0.5-0.9c-1.1-1.6-3.2-2-5-1.1l-291,185.4c-1.6,1.1-2,3.2-1.1,5l0.5,0.9c1.1,1.6,3.2,2,5,1.1
							l291-185.4C735.2-10,735.6-12,734.5-13.8z"/>
					</g>
				</g>
			</g>
		</g>
	</g>
	<g id="Sign_2_">
		
			<linearGradient id="T_1_" gradientUnits="userSpaceOnUse" x1="211.5889" y1="132.8085" x2="369.9035" y2="190.4303" gradientTransform="matrix(1 0 0 -1 0 342)">
			<stop  offset="0.2" style="stop-color:#324D69"/>
			<stop  offset="0.46" style="stop-color:#466A8E"/>
		</linearGradient>
		<path id="T_2_" class="st4" d="M394.7,310.4c0-4.3-3.5-7.8-7.8-7.8H352c-7.8,0-8.4-0.6-10.2-5l-34.2-107.4l57.8-18.4
			c4.1-1.3,6.5-5.8,5.2-10l-23.2-72.8c-1.3-4.1-5.8-6.5-10-5.2l-57.8,18.4L253.1,19c-1.3-4.1-5.8-6.5-10-5.2l-73,23.4
			c-4.1,1.3-6.5,5.8-5.2,10l87.9,275.2c1.3,4.1,2.6,9.7,12.6,9.7h121.3c4.3,0,7.8-3.5,7.8-7.8v-13.9H394.7z"/>
		<path id="Platinum_4_" class="st5" d="M256.5,253c0,0-70.8,22.3-75.1,24c-9.7,3.9-11.3,9.1-11.3,17.8v29.4c0,4.3-3.5,7.8-7.8,7.8
			H77.7c-4.3,0-7.8-3.5-7.8-7.8V140.4c0-17.8,3.2-21,13.9-24.9l117.1-37.5c4.1-1.3,8.7,1.1,10,5.2L262,243.1
			C263,247.2,260.7,251.5,256.5,253z"/>
		<g id="Blinks_3_">
			<g>
				<defs>
					<path id="SVGID_4_" d="M256.5,253c0,0-70.8,22.3-75.1,24c-9.7,3.9-11.3,9.1-11.3,17.8v29.4c0,4.3-3.5,7.8-7.8,7.8H77.7
						c-4.3,0-7.8-3.5-7.8-7.8V140.4c0-17.8,3.2-21,13.9-24.9l117.1-37.5c4.1-1.3,8.7,1.1,10,5.2L262,243.1
						C263,247.2,260.7,251.5,256.5,253z"/>
				</defs>
				<clipPath id="SVGID_5_">
					<use xlink:href="#SVGID_4_"  style="overflow:visible;"/>
				</clipPath>
				
					<linearGradient id="Blinks_1_" gradientUnits="userSpaceOnUse" x1="37.5114" y1="112.3319" x2="265.4351" y2="136.2876" gradientTransform="matrix(1 0 0 -1 0 342)">
					<stop  offset="0.1949" style="stop-color:#D9D3CC"/>
					<stop  offset="0.378" style="stop-color:#E5DCD3"/>
					<stop  offset="0.5641" style="stop-color:#ECE1D4"/>
				</linearGradient>
				<path id="Blinks_4_" class="st6" d="M59.5,167.9c-1.9-3.2-0.9-7.4,2.2-9.3l146.2-90.1c3.2-1.9,7.4-0.9,9.3,2.2L218,72
					c1.9,3.2,0.9,7.4-2.2,9.3L69.7,171.4c-3.2,1.9-7.4,0.9-9.3-2.2L59.5,167.9z M78.8,214.9l-3,1.5c-3,1.5-4.1,5-2.8,7.8l0,0
					c1.5,3,5,4.1,7.8,2.8l1.7-0.9c1.9,0.9,4.1,0.6,6.1-0.4l18.2-11.3l130.1-62.8c3-1.5,4.1-5,2.8-7.8c-1.5-3-5-4.1-7.8-2.8
					l-26.4,12.8l29.4-18.2c3.2-1.9,4.1-6.1,2.2-9.3l-0.9-1.3c-1.9-3.2-6.1-4.1-9.3-2.2L80.7,213C79.8,213.4,79.2,214.3,78.8,214.9z
					 M254.6,190.2c3.2-1.9,4.1-6.1,2.2-9.3l-0.9-1.3c-1.9-3.2-6.1-4.1-9.3-2.2L48.7,299.4c-3.2,1.9-4.1,6.1-2.2,9.3l0.9,1.3
					c1.9,3.2,6.1,4.1,9.3,2.2L254.6,190.2z M264.6,203.9l-0.9-1.3c-1.9-3.2-6.1-4.1-9.3-2.2L56.5,322.3c-3.2,1.9-4.1,6.1-2.2,9.3
					l0.9,1.3c1.9,3.2,6.1,4.1,9.3,2.2l197.9-121.9C265.6,211.3,266.5,207.1,264.6,203.9z M180.1,296.4c-1.9-3.2-6.1-4.1-9.3-2.2
					l-72.5,44.6c-3.2,1.9-4.1,6.1-2.2,9.3l8.9,14.5c1.9,3.2,6.1,4.1,9.3,2.2l72.5-44.6c3.2-1.9,4.1-6.1,2.2-9.3L180.1,296.4z"/>
			</g>
		</g>
		<g id="Shadow_3_">
			<g>
				<defs>
					<path id="SVGID_6_" d="M256.5,253c0,0-70.8,22.3-75.1,24c-9.7,3.9-11.3,9.1-11.3,17.8v29.4c0,4.3-3.5,7.8-7.8,7.8H77.7
						c-4.3,0-7.8-3.5-7.8-7.8V140.4c0-17.8,3.2-21,13.9-24.9l117.1-37.5c4.1-1.3,8.7,1.1,10,5.2L262,243.1
						C263,247.2,260.7,251.5,256.5,253z"/>
				</defs>
				<clipPath id="SVGID_7_">
					<use xlink:href="#SVGID_6_"  style="overflow:visible;"/>
				</clipPath>
				
					<radialGradient id="Shadow_1_" cx="353.3743" cy="617.0915" r="89.8325" gradientTransform="matrix(1.3944 -0.4452 -0.4899 -1.5325 -111.341 1320.8711)" gradientUnits="userSpaceOnUse">
					<stop  offset="0.2" style="stop-color:#8D8781"/>
					<stop  offset="0.2196" style="stop-color:#908A84;stop-opacity:0.9674"/>
					<stop  offset="0.4736" style="stop-color:#B8B2AB;stop-opacity:0.544"/>
					<stop  offset="0.6759" style="stop-color:#D0CAC3;stop-opacity:0.2068"/>
					<stop  offset="0.8" style="stop-color:#D9D3CC;stop-opacity:0"/>
				</radialGradient>
				<path id="Shadow_4_" class="st7" d="M-79.1,268.4c15.4,48.3,98.7,64.7,186.2,37c87.5-27.7,145.7-89.9,130.1-138.2
					s-98.7-64.7-186.2-37S-94.7,220.1-79.1,268.4z"/>
			</g>
		</g>
		
			<linearGradient id="T_part_1_" gradientUnits="userSpaceOnUse" x1="28.047" y1="108.9724" x2="204.8422" y2="169.848" gradientTransform="matrix(1 0 0 -1 0 342)">
			<stop  offset="0.2" style="stop-color:#324D69"/>
			<stop  offset="0.46" style="stop-color:#466A8E"/>
		</linearGradient>
		<path id="T_part_2_" class="st8" d="M39.8,267.1l-23.2-72.8c-1.3-4.1,1.1-8.7,5.2-10l161.3-51.5c4.1-1.3,8.7,1.1,10,5.2l23.2,72.8
			c1.3,4.1-1.1,8.7-5.2,10L49.5,272.3C45.6,273.6,41.1,271.2,39.8,267.1z"/>
		<path id="Arrow_2_" class="st9" d="M408.1,146.3c-1.9-1.7-2.2-4.5-0.4-6.5l26.4-30.7L9.9,244.4c-3.9,1.3-8.2-0.9-9.5-4.8
			c-1.3-3.9,0.9-8.2,4.8-9.5L429.3,94.5l-39.4-9.7c-2.4-0.6-4.1-3.2-3.5-5.6c0.6-2.4,3.2-4.1,5.6-3.5c0,0,47,10.4,56.7,13.9
			c2.4,0.6,4.3,2.4,5.2,5c0.9,2.4,0.2,5.2-1.3,6.9c-6.1,8.4-38.3,44.2-38.3,44.2C413.1,147.8,410.1,148,408.1,146.3z"/>
	</g>
</g>
</svg>
